<svg width="26" height="32" viewBox="0 0 26 32" fill="none" xmlns="http://www.w3.org/2000/svg">
<mask id="path-1-inside-1_2_17" fill="white">
<path fill-rule="evenodd" clip-rule="evenodd" d="M13 32C20.1797 32 26 24.8366 26 16C26 7.16344 20.1797 0 13 0C5.8203 0 0 7.16344 0 16C0 24.8366 5.8203 32 13 32ZM13 32C16.866 32 20 24.8366 20 16C20 7.16344 16.866 0 13 0C9.13401 0 6 7.16344 6 16C6 24.8366 9.13401 32 13 32Z"/>
</mask>
<path fill-rule="evenodd" clip-rule="evenodd" d="M13 32C20.1797 32 26 24.8366 26 16C26 7.16344 20.1797 0 13 0C5.8203 0 0 7.16344 0 16C0 24.8366 5.8203 32 13 32ZM13 32C16.866 32 20 24.8366 20 16C20 7.16344 16.866 0 13 0C9.13401 0 6 7.16344 6 16C6 24.8366 9.13401 32 13 32Z" fill="black"/>
<path d="M25 16C25 24.4883 19.4434 31 13 31V33C20.916 33 27 25.1848 27 16H25ZM13 1C19.4434 1 25 7.51169 25 16H27C27 6.8152 20.916 -1 13 -1V1ZM1 16C1 7.51169 6.5566 1 13 1V-1C5.08399 -1 -1 6.8152 -1 16H1ZM13 31C6.5566 31 1 24.4883 1 16H-1C-1 25.1848 5.08399 33 13 33V31ZM19 16C19 20.3137 18.2331 24.1712 17.0336 26.9129C16.4332 28.2852 15.7441 29.333 15.0297 30.0237C14.32 30.7098 13.6356 31 13 31V33C14.2974 33 15.4545 32.3948 16.4198 31.4616C17.3803 30.533 18.1995 29.2376 18.8659 27.7145C20.1999 24.6653 21 20.5228 21 16H19ZM13 1C13.6356 1 14.32 1.29024 15.0297 1.97631C15.7441 2.66703 16.4332 3.7148 17.0336 5.08711C18.2331 7.82877 19 11.6863 19 16H21C21 11.4772 20.1999 7.33467 18.8659 4.28547C18.1995 2.76236 17.3803 1.46698 16.4198 0.53841C15.4545 -0.39481 14.2974 -1 13 -1V1ZM7 16C7 11.6863 7.76693 7.82877 8.96641 5.08711C9.5668 3.7148 10.2559 2.66703 10.9703 1.97631C11.68 1.29024 12.3644 1 13 1V-1C11.7026 -1 10.5455 -0.39481 9.58022 0.53841C8.61974 1.46698 7.80046 2.76236 7.1341 4.28547C5.80007 7.33467 5 11.4772 5 16H7ZM13 31C12.3644 31 11.68 30.7098 10.9703 30.0237C10.2559 29.333 9.5668 28.2852 8.96641 26.9129C7.76693 24.1712 7 20.3137 7 16H5C5 20.5228 5.80007 24.6653 7.1341 27.7145C7.80046 29.2376 8.61974 30.533 9.58022 31.4616C10.5455 32.3948 11.7026 33 13 33V31Z" fill="#FFFF00" mask="url(#path-1-inside-1_2_17)"/>
</svg>
